<svg width="24" height="24" viewBox="0 0 24 24" fill="none" xmlns="http://www.w3.org/2000/svg">
<circle cx="12" cy="12" r="12" transform="matrix(-1 0 0 1 24 0)" fill="#0F45FF"/>
<path d="M7.49621 9.57591C8.36002 12.969 11.0312 15.6402 14.4243 16.504C15.7088 16.831 16.8 15.7257 16.8 14.4002V13.8002C16.8 13.4688 16.5307 13.2034 16.2009 13.1707C15.6438 13.1154 15.1091 12.984 14.6074 12.7869L13.6958 13.6985C12.2132 12.989 11.0112 11.787 10.3017 10.3044L11.2132 9.39283C11.0162 8.89109 10.8847 8.35637 10.8295 7.79925C10.7968 7.46949 10.5314 7.2002 10.2 7.2002H9.59999C8.2745 7.2002 7.1692 8.2914 7.49621 9.57591Z" fill="white" stroke="white" stroke-linecap="round" stroke-linejoin="round"/>
</svg>
